# xmcd CD database file
#
# Track frame offsets:
#	183
#	10720
#	22000
#	27338
#	38978
#	52603
#	63655
#	74330
#	89333
#	103753
#	112083
#	120175
#
# Disc length: 1765 seconds
#
# Revision: 2
# Processed by: cddbd v1.4b41PL1 Copyright (c) Steve Scherf et al.
# Submitted via: Feurio! 1.50.2ß - http://www.feurio.com
#
DISCID=9806e30c
DTITLE=Fats Domino - The fat man
DYEAR=1900
DGENRE=
TTITLE0=I'm gonna be a wheel someday
TTITLE1=I want to walk you home
TTITLE2=Whole lotta loving
TTITLE3=The fat man
TTITLE4=Blueberry hill
TTITLE5=Ain't that a shame
TTITLE6=Blue monday
TTITLE7=Jambalaya (on the bayou)
TTITLE8=I'm in love again
TTITLE9=Be my guest
TTITLE10=Red sails in the sunset
TTITLE11=Goin' home
EXTD=
EXTT0=
EXTT1=
EXTT2=
EXTT3=
EXTT4=
EXTT5=
EXTT6=
EXTT7=
EXTT8=
EXTT9=
EXTT10=
EXTT11=
PLAYORDER=
